<svg xmlns="http://www.w3.org/2000/svg" data-name="Layer 1" viewBox="0 0 95 118.75" x="0px" y="0px"><path d="M92.407,24.224l-7.483-7.482V2.267A1.266,1.266,0,0,0,83.658,1h-69.2a1.267,1.267,0,0,0-1.267,1.267v32.3H12.172A1.266,1.266,0,0,0,11,35.344c-1,2.4-3.606,4.981-6.952,4.981a1.267,1.267,0,0,0-1.26,1.141c-.96,9.624-2.237,22.442,10.4,28.828V84.88a1.267,1.267,0,0,0,1.267,1.267h6.586v6.586A1.267,1.267,0,0,0,22.308,94h69.2a1.267,1.267,0,0,0,1.267-1.267V25.12A1.27,1.27,0,0,0,92.407,24.224ZM77.778,13.178,88.454,23.853H77.778ZM15.721,3.533h66.67V14.209L77.407,9.224a1.27,1.27,0,0,0-.9-.371h-54.2a1.267,1.267,0,0,0-1.267,1.267V34.566h-5.32ZM5.837,58.282c-1.44-4.59-1.18-9.748-.63-15.5A10.5,10.5,0,0,0,12.976,37.1H23.825a10.5,10.5,0,0,0,7.769,5.687c.551,5.748.81,10.906-.63,15.5C29.222,63.834,25.11,67.561,18.4,69.667,11.691,67.561,7.579,63.834,5.837,58.282Zm9.884,25.332v-12.2q1.1.423,2.315.79a1.28,1.28,0,0,0,.729,0q1.2-.36,2.276-.776V83.614Zm7.854,7.853V70.314A18.472,18.472,0,0,0,33.893,57.173h5.994a1.267,1.267,0,0,0,0-2.533H34.325a35.273,35.273,0,0,0,.249-3.815h24.59a1.267,1.267,0,1,0,0-2.533H34.543C34.495,47,34.4,45.721,34.3,44.476H82.085a1.267,1.267,0,1,0,0-2.533H34.058q-.024-.24-.048-.477a1.266,1.266,0,0,0-1.26-1.141c-3.346,0-5.949-2.582-6.952-4.981a1.265,1.265,0,0,0-1.168-.778H23.575V11.386h51.67V25.12a1.266,1.266,0,0,0,1.266,1.266H90.245V91.467ZM83.352,49.558a1.267,1.267,0,0,1-1.267,1.267H65.724a1.267,1.267,0,1,1,0-2.533H82.085A1.266,1.266,0,0,1,83.352,49.558Zm0,6.349a1.266,1.266,0,0,1-1.267,1.266H46.446a1.267,1.267,0,0,1,0-2.533H82.085A1.267,1.267,0,0,1,83.352,55.907ZM35.544,35.878a1.266,1.266,0,0,1-1.266,1.267H31.734a1.267,1.267,0,1,1,0-2.533h2.544A1.266,1.266,0,0,1,35.544,35.878Zm11.866,0a1.267,1.267,0,0,1-1.267,1.267H38.706a1.267,1.267,0,1,1,0-2.533h7.437A1.266,1.266,0,0,1,47.41,35.878Zm.474-6.012a1.266,1.266,0,0,1-1.267,1.266H31.734a1.267,1.267,0,1,1,0-2.533H46.617A1.267,1.267,0,0,1,47.884,29.866Zm-19.7,23.546A9.784,9.784,0,1,0,18.4,63.2,9.795,9.795,0,0,0,28.184,53.412Zm-17.034,0a7.251,7.251,0,1,1,7.251,7.25A7.259,7.259,0,0,1,11.15,53.412Zm10.884-.743-3.889,3.889a1.266,1.266,0,0,1-1.791,0l-2.2-2.2a1.267,1.267,0,0,1,1.792-1.791l1.3,1.3,2.993-2.993a1.266,1.266,0,1,1,1.791,1.791ZM83.352,63.131A1.266,1.266,0,0,1,82.085,64.4H46.446a1.267,1.267,0,0,1,0-2.533H82.085A1.267,1.267,0,0,1,83.352,63.131ZM40.7,59.483a3.648,3.648,0,1,0,3.648,3.648A3.652,3.652,0,0,0,40.7,59.483Zm0,4.762a1.115,1.115,0,1,1,1.115-1.114A1.116,1.116,0,0,1,40.7,64.245ZM83.352,72.31a1.266,1.266,0,0,1-1.267,1.266H46.446a1.267,1.267,0,0,1,0-2.533H82.085A1.267,1.267,0,0,1,83.352,72.31ZM40.7,68.662a3.648,3.648,0,1,0,3.648,3.648A3.652,3.652,0,0,0,40.7,68.662Zm0,4.762A1.115,1.115,0,1,1,41.81,72.31,1.116,1.116,0,0,1,40.7,73.424Zm42.657,8.065a1.267,1.267,0,0,1-1.267,1.267H46.446a1.267,1.267,0,0,1,0-2.534H82.085A1.267,1.267,0,0,1,83.352,81.489ZM40.7,77.841a3.648,3.648,0,1,0,3.648,3.648A3.652,3.652,0,0,0,40.7,77.841Zm0,4.762a1.115,1.115,0,1,1,1.115-1.114A1.116,1.116,0,0,1,40.7,82.6Z"/></svg>
