<svg xmlns="http://www.w3.org/2000/svg" xmlns:xlink="http://www.w3.org/1999/xlink" version="1.1" x="0px" y="0px" viewBox="0 0 96 120" style="enable-background:new 0 0 96 96;" xml:space="preserve"><path d="M49.887,27.647c6.795,0,12.324-5.528,12.324-12.324S56.682,3,49.887,3c-6.795,0-12.324,5.528-12.324,12.324  S43.091,27.647,49.887,27.647z M49.887,5.338c5.506,0,9.986,4.48,9.986,9.986s-4.48,9.986-9.986,9.986  c-5.506,0-9.986-4.48-9.986-9.986S44.38,5.338,49.887,5.338z M92.369,46.289c-0.148-0.458-0.561-0.778-1.041-0.807l-7.574-0.464  l-2.738-7.026c-0.175-0.448-0.606-0.743-1.087-0.744c-0.001,0-0.001,0-0.002,0c-0.48,0-0.911,0.294-1.088,0.74l-2.781,7.06  l-7.528,0.433c-0.48,0.028-0.894,0.347-1.044,0.804c-0.15,0.457-0.004,0.959,0.367,1.265l5.855,4.827l-1.914,7.293  c-0.122,0.465,0.053,0.958,0.442,1.241c0.389,0.284,0.911,0.3,1.317,0.041l6.4-4.077l6.345,4.075  c0.193,0.124,0.412,0.185,0.632,0.185c0.241,0,0.481-0.074,0.685-0.222c0.39-0.282,0.567-0.774,0.446-1.239l-1.9-7.347l5.836-4.775  C92.369,47.248,92.517,46.747,92.369,46.289z M84.102,50.992c-0.353,0.289-0.505,0.756-0.391,1.197l1.34,5.182l-4.464-2.867  c-0.384-0.246-0.875-0.247-1.26-0.002l-4.515,2.876l1.347-5.131c0.116-0.441-0.035-0.909-0.387-1.199l-4.13-3.405l5.296-0.305  c0.455-0.026,0.853-0.314,1.02-0.739l1.962-4.98l1.926,4.943c0.166,0.425,0.563,0.714,1.018,0.742l5.343,0.327L84.102,50.992z   M27.579,48.69c0-5.219-4.246-9.466-9.466-9.466c-5.219,0-9.466,4.246-9.466,9.466c0,3.175,1.601,6.134,4.22,7.88v0.08  c0,0.322,0.074,0.627,0.206,0.899c-0.132,0.272-0.206,0.577-0.206,0.899v0.959c0,0.934,0.622,1.724,1.474,1.98  c0.471,1.641,1.982,2.846,3.772,2.846c1.79,0,3.301-1.205,3.772-2.846c0.851-0.256,1.474-1.046,1.474-1.98v-0.959  c0-0.322-0.074-0.627-0.206-0.899c0.132-0.272,0.206-0.577,0.206-0.899v-0.08C25.979,54.823,27.579,51.864,27.579,48.69z   M21.021,58.718v0.42h-5.815v-0.42H21.021z M17.041,61.476h2.145c-0.283,0.26-0.659,0.42-1.073,0.42  C17.7,61.896,17.324,61.735,17.041,61.476z M21.615,54.9c-0.367,0.207-0.594,0.596-0.594,1.018v0.463h-1.739v-9.164  c0-0.645-0.523-1.169-1.169-1.169c-0.645,0-1.169,0.523-1.169,1.169v9.164h-1.739v-0.463c0-0.421-0.227-0.81-0.594-1.018  c-2.237-1.264-3.627-3.644-3.627-6.21c0-3.93,3.198-7.128,7.128-7.128c3.931,0,7.128,3.198,7.128,7.128  C25.242,51.256,23.852,53.636,21.615,54.9z M16.945,37.781v-2.462c0-0.645,0.523-1.169,1.169-1.169c0.645,0,1.169,0.523,1.169,1.169  v2.462c0,0.645-0.523,1.169-1.169,1.169C17.468,38.95,16.945,38.427,16.945,37.781z M28.394,40.062l-1.741,1.741  c-0.228,0.228-0.527,0.342-0.826,0.342c-0.299,0-0.598-0.114-0.826-0.342c-0.456-0.456-0.456-1.196,0-1.653l1.741-1.741  c0.456-0.457,1.196-0.457,1.653,0C28.851,38.865,28.851,39.605,28.394,40.062z M27.853,48.69c0-0.645,0.523-1.169,1.169-1.169h2.462  c0.645,0,1.169,0.523,1.169,1.169c0,0.645-0.523,1.169-1.169,1.169h-2.462C28.377,49.858,27.853,49.335,27.853,48.69z M25,57.229  c-0.456-0.456-0.456-1.196,0-1.653c0.457-0.457,1.197-0.457,1.653,0l1.741,1.741c0.456,0.456,0.456,1.196,0,1.653  c-0.228,0.228-0.527,0.342-0.826,0.342s-0.598-0.114-0.826-0.342L25,57.229z M11.226,55.577c0.456,0.456,0.456,1.196,0,1.653  L9.486,58.97c-0.228,0.228-0.527,0.342-0.826,0.342c-0.299,0-0.598-0.114-0.826-0.342c-0.456-0.456-0.456-1.196,0-1.653l1.741-1.741  C10.03,55.12,10.77,55.12,11.226,55.577z M7.205,49.858H4.743c-0.645,0-1.169-0.523-1.169-1.169c0-0.645,0.523-1.169,1.169-1.169  h2.462c0.645,0,1.169,0.523,1.169,1.169C8.374,49.335,7.85,49.858,7.205,49.858z M7.833,40.062c-0.456-0.456-0.456-1.196,0-1.653  c0.457-0.457,1.197-0.457,1.653,0l1.741,1.741c0.456,0.456,0.456,1.196,0,1.653c-0.228,0.228-0.527,0.342-0.826,0.342  s-0.598-0.114-0.826-0.342L7.833,40.062z M65.836,16.216c0.404-0.503,1.14-0.584,1.643-0.18c3.915,3.143,6.904,7.301,8.645,11.956  l0.493-1.46c0.207-0.612,0.87-0.94,1.482-0.733c0.612,0.207,0.94,0.87,0.733,1.481l-1.669,4.937  c-0.002,0.006-0.005,0.012-0.007,0.018c-0.011,0.031-0.023,0.061-0.037,0.09c-0.005,0.011-0.009,0.021-0.014,0.032  c-0.038,0.077-0.084,0.15-0.137,0.216c-0.007,0.009-0.015,0.018-0.023,0.027c-0.02,0.024-0.042,0.047-0.064,0.07  c-0.009,0.009-0.018,0.018-0.028,0.027c-0.023,0.022-0.048,0.043-0.073,0.063c-0.009,0.007-0.017,0.014-0.026,0.02  c-0.031,0.023-0.064,0.045-0.098,0.066c-0.003,0.002-0.006,0.004-0.01,0.006c-0.038,0.022-0.078,0.043-0.119,0.061  c-0.007,0.003-0.014,0.005-0.021,0.008c-0.032,0.013-0.065,0.026-0.099,0.037c-0.005,0.002-0.01,0.004-0.015,0.005  c-0.008,0.002-0.016,0.003-0.024,0.005c-0.019,0.005-0.038,0.012-0.057,0.016c-0.019,0.004-0.038,0.006-0.058,0.01  c-0.015,0.003-0.03,0.006-0.046,0.008c-0.052,0.007-0.103,0.011-0.154,0.011c-0.027,0-0.054-0.005-0.081-0.007  c-0.037-0.003-0.075-0.003-0.111-0.01c-0.033-0.006-0.065-0.016-0.098-0.025c-0.03-0.008-0.061-0.013-0.09-0.024  c-0.03-0.01-0.058-0.025-0.087-0.038c-0.03-0.013-0.061-0.025-0.09-0.041c-0.029-0.016-0.056-0.036-0.084-0.055  c-0.024-0.016-0.05-0.03-0.073-0.048l-4.119-3.193c-0.51-0.396-0.603-1.13-0.208-1.64c0.396-0.51,1.13-0.603,1.64-0.208l1.234,0.956  c-1.601-4.211-4.32-7.973-7.871-10.824C65.513,17.455,65.432,16.719,65.836,16.216z M23.051,31.588  c1.088-4.852,3.498-9.341,6.906-12.954l-1.451,0.207c-0.639,0.09-1.231-0.353-1.322-0.992c-0.091-0.639,0.353-1.231,0.992-1.322  l5.159-0.737c0.007-0.001,0.014-0.001,0.021-0.002c0.031-0.004,0.062-0.006,0.092-0.008c0.016-0.001,0.031-0.001,0.046-0.002  c0.027,0,0.055,0.001,0.082,0.003c0.016,0.001,0.032,0.001,0.047,0.003c0.039,0.004,0.078,0.01,0.117,0.019  c0.017,0.003,0.033,0.008,0.049,0.013c0.025,0.006,0.05,0.013,0.074,0.021c0.016,0.005,0.033,0.012,0.049,0.018  c0.025,0.009,0.049,0.019,0.073,0.03c0.014,0.007,0.028,0.013,0.043,0.02c0.027,0.014,0.053,0.029,0.079,0.045  c0.01,0.006,0.021,0.012,0.031,0.019c0.072,0.047,0.139,0.102,0.201,0.166c0.002,0.002,0.005,0.004,0.007,0.006  c0.007,0.008,0.013,0.017,0.021,0.024c0.015,0.016,0.03,0.032,0.044,0.05c0.005,0.006,0.009,0.013,0.014,0.019  c0.01,0.013,0.019,0.026,0.029,0.04c0.017,0.023,0.032,0.047,0.047,0.071c0.008,0.013,0.015,0.025,0.022,0.038  c0.015,0.028,0.029,0.056,0.042,0.084c0.005,0.01,0.01,0.021,0.014,0.031c0.016,0.038,0.03,0.076,0.041,0.115  c0.001,0.002,0.001,0.004,0.002,0.005c0.012,0.043,0.022,0.086,0.03,0.129c0.001,0.007,0.002,0.015,0.003,0.022  c0.005,0.034,0.009,0.069,0.011,0.104c0.001,0.014,0.001,0.028,0.001,0.041c0.001,0.029,0,0.059-0.001,0.088  c-0.001,0.015-0.001,0.03-0.003,0.044c-0.003,0.032-0.007,0.064-0.013,0.096c-0.001,0.009-0.002,0.017-0.003,0.026l-0.993,5.116  c-0.108,0.559-0.598,0.946-1.146,0.946c-0.074,0-0.149-0.007-0.224-0.022c-0.634-0.123-1.048-0.736-0.925-1.37l0.315-1.621  c-3.131,3.312-5.344,7.429-6.342,11.879c-0.122,0.544-0.604,0.913-1.139,0.913c-0.085,0-0.171-0.009-0.257-0.029  C23.306,32.843,22.91,32.218,23.051,31.588z M49.887,17.972c1.04,0,1.94-0.604,2.373-1.479h4.047c0.645,0,1.169-0.523,1.169-1.169  c0-0.645-0.523-1.169-1.169-1.169h-4.047c-0.258-0.522-0.682-0.946-1.204-1.204V7.684c0-0.645-0.523-1.169-1.169-1.169  c-0.645,0-1.169,0.523-1.169,1.169v5.267c-0.875,0.433-1.479,1.332-1.479,2.373C47.239,16.784,48.426,17.972,49.887,17.972z   M49.887,15.634c-0.168,0-0.31-0.142-0.31-0.31c0-0.168,0.142-0.31,0.31-0.31c0.168,0,0.31,0.142,0.31,0.31c0,0,0,0,0,0.001  s0,0,0,0.001C50.197,15.492,50.055,15.634,49.887,15.634z M65.515,60.116h-0.053c-1.382-3.692-4.93-6.2-8.924-6.2H39.462  c-3.994,0-7.543,2.508-8.924,6.2h-0.053c-1.715,0-3.2,0.698-4.295,2.018c-1.095,1.32-1.506,2.908-1.189,4.594l2.688,14.298  c0.504,2.679,2.759,4.55,5.485,4.55h29.656c2.726,0,4.981-1.871,5.485-4.55L71,66.728c0.317-1.686-0.094-3.274-1.189-4.594  C68.716,60.814,67.23,60.116,65.515,60.116z M39.462,56.254h17.076c2.708,0,5.145,1.53,6.369,3.862H33.093  C34.316,57.784,36.753,56.254,39.462,56.254z M68.703,66.296l-2.688,14.298c-0.293,1.557-1.603,2.644-3.187,2.644H33.172  c-1.584,0-2.894-1.087-3.187-2.644l-2.688-14.298c-0.187-0.993,0.046-1.892,0.691-2.67c0.645-0.778,1.485-1.172,2.496-1.172h35.031  c1.011,0,1.851,0.394,2.496,1.172C68.657,64.404,68.889,65.302,68.703,66.296z M68.377,86.526H27.623  c-0.645,0-1.169,0.523-1.169,1.169v2.068c0,1.785,1.452,3.237,3.237,3.237h36.617c1.785,0,3.237-1.452,3.237-3.237v-2.068  C69.546,87.049,69.022,86.526,68.377,86.526z M67.208,89.763c0,0.496-0.403,0.899-0.899,0.899H29.692  c-0.496,0-0.899-0.403-0.899-0.899v-0.9h38.416V89.763z M48,68.509c-2.391,0-4.337,1.946-4.337,4.337  c0,2.391,1.945,4.337,4.337,4.337c2.391,0,4.337-1.945,4.337-4.337C52.337,70.454,50.391,68.509,48,68.509z M48,74.845  c-1.102,0-1.999-0.897-1.999-1.999c0-1.102,0.897-1.999,1.999-1.999c1.102,0,1.999,0.897,1.999,1.999  C49.999,73.948,49.102,74.845,48,74.845z M37.745,41.35c0,5.655,4.6,10.255,10.255,10.255c5.655,0,10.255-4.6,10.255-10.255  S53.655,31.095,48,31.095C42.345,31.095,37.745,35.696,37.745,41.35z M55.917,41.35c0,4.366-3.552,7.917-7.917,7.917  c-4.366,0-7.917-3.552-7.917-7.917s3.552-7.917,7.917-7.917C52.366,33.433,55.917,36.985,55.917,41.35z"/></svg>
