<svg xmlns="http://www.w3.org/2000/svg" xmlns:xlink="http://www.w3.org/1999/xlink" version="1.1" x="0px" y="0px" viewBox="0 0 100 125" style="enable-background:new 0 0 100 100;" xml:space="preserve"><path d="M17.03,44.89l-0.45,4.24c-0.03,0.26,0.08,0.51,0.29,0.66c0.21,0.15,0.48,0.18,0.72,0.08l3.9-1.73l3.9,1.73  c0.09,0.04,0.19,0.06,0.29,0.06c0.15,0,0.3-0.05,0.42-0.14c0.21-0.15,0.32-0.4,0.29-0.66l-0.45-4.24l1.71-1.9l-0.44,4.17  c-0.03,0.26,0.08,0.51,0.29,0.66c0.21,0.15,0.48,0.18,0.72,0.08l5.29-2.35l5.29,2.35c0.09,0.04,0.19,0.06,0.29,0.06  c0.15,0,0.3-0.05,0.42-0.14c0.21-0.15,0.32-0.4,0.29-0.66l-0.61-5.76l3.48-3.87l0.37,0.41l-0.77,7.28  c-0.03,0.26,0.08,0.51,0.29,0.66c0.21,0.15,0.48,0.18,0.72,0.08L50,42.98l6.69,2.97c0.09,0.04,0.19,0.06,0.29,0.06  c0.15,0,0.3-0.05,0.42-0.14c0.21-0.15,0.32-0.4,0.29-0.66l-0.77-7.28l0.37-0.41l3.48,3.87l-0.61,5.76  c-0.03,0.26,0.08,0.51,0.29,0.66c0.21,0.15,0.48,0.18,0.72,0.08l5.29-2.35l5.29,2.35c0.09,0.04,0.19,0.06,0.29,0.06  c0.15,0,0.3-0.05,0.42-0.14c0.21-0.15,0.32-0.4,0.29-0.66L72.34,43l1.7,1.89l-0.45,4.24c-0.03,0.26,0.08,0.51,0.29,0.66  c0.21,0.15,0.48,0.18,0.72,0.08l3.9-1.73l3.9,1.73c0.09,0.04,0.19,0.06,0.29,0.06c0.15,0,0.3-0.05,0.42-0.14  c0.21-0.15,0.32-0.4,0.29-0.66l-0.45-4.24l2.85-3.17c0.17-0.19,0.23-0.46,0.15-0.7c-0.08-0.24-0.28-0.43-0.53-0.48l-4.17-0.89  l-2.13-3.69c-0.26-0.45-0.99-0.44-1.25,0l-2.13,3.69l-2.47,0.53l2.76-3.07c0.17-0.19,0.23-0.46,0.15-0.71  c-0.08-0.24-0.28-0.43-0.53-0.48l-5.67-1.2L67.1,29.7c-0.26-0.45-0.99-0.45-1.25,0l-2.89,5.01l-3.86,0.82l2.72-3.03  c0.17-0.19,0.23-0.46,0.15-0.7c-0.08-0.24-0.28-0.43-0.53-0.48l-7.16-1.52l-3.65-6.33c-0.26-0.45-0.99-0.45-1.25,0l-3.65,6.33  l-7.16,1.52c-0.25,0.05-0.46,0.24-0.53,0.48c-0.08,0.24-0.02,0.51,0.15,0.7l2.72,3.03l-3.86-0.82l-2.89-5.01  c-0.26-0.45-0.99-0.45-1.25,0l-2.89,5.01l-5.67,1.2c-0.25,0.05-0.46,0.24-0.53,0.48c-0.08,0.24-0.02,0.51,0.15,0.7l2.76,3.07  l-2.47-0.53l-2.13-3.69c-0.26-0.45-0.99-0.44-1.25,0l-2.13,3.69l-4.17,0.89c-0.25,0.05-0.46,0.24-0.53,0.48  c-0.08,0.24-0.02,0.51,0.15,0.7L17.03,44.89z M76.37,41c0.2-0.04,0.37-0.17,0.47-0.34l1.66-2.88l1.66,2.88  c0.1,0.18,0.28,0.3,0.47,0.34l3.27,0.69l-2.23,2.48c-0.14,0.15-0.2,0.35-0.18,0.56l0.35,3.32l-3.05-1.36  c-0.09-0.04-0.19-0.06-0.29-0.06c-0.1,0-0.2,0.02-0.29,0.06l-3.05,1.35l0.35-3.32c0.02-0.2-0.05-0.41-0.18-0.56l-2.23-2.48L76.37,41  z M63.58,36.06c0.2-0.04,0.37-0.17,0.47-0.34l2.43-4.21l2.43,4.21c0.1,0.18,0.28,0.3,0.47,0.34l4.76,1.01l-3.25,3.61  c-0.14,0.15-0.2,0.35-0.18,0.56l0.51,4.84l-4.44-1.97c-0.09-0.04-0.19-0.06-0.29-0.06s-0.2,0.02-0.29,0.06l-4.44,1.97l0.51-4.84  c0.02-0.2-0.05-0.41-0.18-0.56l-3.25-3.61L63.58,36.06z M40.08,32.47l6.26-1.33c0.2-0.04,0.37-0.17,0.47-0.34L50,25.27l3.19,5.53  c0.1,0.18,0.28,0.3,0.47,0.34l6.26,1.33l-4.27,4.75c-0.14,0.15-0.2,0.35-0.18,0.56l0.67,6.36l-5.84-2.6  C50.2,41.5,50.1,41.48,50,41.48c-0.1,0-0.2,0.02-0.29,0.06l-5.84,2.6l0.67-6.36c0.02-0.2-0.05-0.41-0.18-0.56L40.08,32.47z   M25.86,37.07l4.76-1.01c0.2-0.04,0.37-0.17,0.47-0.34l2.43-4.21l2.43,4.21c0.1,0.18,0.28,0.3,0.47,0.34l4.76,1.01l-3.25,3.61  c-0.14,0.15-0.2,0.35-0.18,0.56l0.51,4.84l-4.45-1.98c-0.09-0.04-0.19-0.06-0.29-0.06s-0.2,0.02-0.29,0.06l-4.45,1.98l0.51-4.84  c0.02-0.2-0.05-0.41-0.18-0.56L25.86,37.07z M19.36,41c0.2-0.04,0.37-0.17,0.47-0.34l1.66-2.88l1.66,2.88  c0.1,0.18,0.28,0.3,0.47,0.34l3.26,0.69l-2.23,2.48c-0.14,0.15-0.2,0.35-0.18,0.56l0.35,3.32l-3.05-1.35  c-0.09-0.04-0.19-0.06-0.29-0.06c-0.1,0-0.2,0.02-0.29,0.06l-3.05,1.35l0.35-3.32c0.02-0.2-0.05-0.41-0.18-0.56l-2.23-2.48L19.36,41  z"/><path d="M41.28,59.85H33.8c-0.4,0-0.72,0.32-0.72,0.72v15.57c0,0.4,0.32,0.72,0.72,0.72h7.48c0.4,0,0.72-0.32,0.72-0.72v-0.64  c3.03,0.53,8.48,1.36,12.88,1.36c0.97,0,1.88-0.04,2.71-0.13c0.68-0.01,1.32-0.28,1.8-0.76c0.49-0.49,0.77-1.15,0.77-1.84  c0-0.64-0.24-1.22-0.63-1.67c0.64-0.48,1.07-1.23,1.07-2.09c0-0.64-0.24-1.22-0.62-1.67c0.65-0.48,1.07-1.23,1.07-2.09  c0-0.64-0.24-1.22-0.62-1.67c0.1-0.08,0.2-0.16,0.3-0.25c0.5-0.5,0.77-1.16,0.77-1.85c0-0.93-0.54-1.57-0.73-1.8  c-1.01-1.17-2.66-1.22-4.87-1.17c-1.07,0.02-2.1,0.08-3.11,0.15c0.29-0.79,0.51-1.61,0.68-2.47c0.29-1.64,0.29-3.39,0.02-5.04  c-0.25-1.51-0.61-2.15-0.97-2.61c-0.53-0.71-1.26-1.25-2.16-1.6l-0.43-0.07c-0.39-0.05-0.79,0.1-1.09,0.42  c-0.24,0.26-0.4,0.61-0.45,1.03c-0.25,3.83-1.34,6.22-3.03,8.82c-1.1,1.71-2.2,2.68-3.36,2.96v-0.89  C42.01,60.17,41.68,59.85,41.28,59.85z M40.56,75.42h-6.03V61.3h6.03V75.42z M46.58,59.28c1.82-2.8,3-5.37,3.26-9.47  c0.01-0.06,0.03-0.11,0.04-0.14l0.05,0c0.6,0.25,1.08,0.61,1.44,1.09c0.24,0.32,0.5,0.78,0.69,1.97c0.25,1.49,0.24,3.07-0.01,4.54  c-0.22,1.15-0.55,2.21-1.02,3.24c-0.01,0.01,0,0.03-0.01,0.04C51,60.6,51,60.65,50.99,60.7c-0.01,0.05-0.02,0.09-0.02,0.14  c0,0.01-0.01,0.03,0,0.04c0,0.03,0.02,0.06,0.03,0.09c0.01,0.05,0.02,0.09,0.04,0.14c0.02,0.04,0.05,0.08,0.07,0.12  c0.03,0.04,0.05,0.07,0.08,0.1c0.04,0.04,0.08,0.06,0.12,0.09c0.03,0.02,0.04,0.04,0.07,0.05c0.01,0.01,0.03,0,0.04,0.01  c0.05,0.02,0.09,0.02,0.14,0.03c0.05,0.01,0.09,0.02,0.14,0.02c0.01,0,0.03,0.01,0.04,0c1.36-0.12,2.72-0.2,4.18-0.23  c2.06-0.05,3.19,0.04,3.74,0.67c0.11,0.13,0.37,0.44,0.37,0.84c0,0.31-0.12,0.6-0.35,0.83c-0.15,0.15-0.33,0.26-0.54,0.31  c-0.11,0.03-0.2,0.03-0.27,0.03c-0.05,0-0.1,0.02-0.14,0.03c-0.1-0.01-0.2-0.03-0.31-0.03c-0.02,0-0.04,0.01-0.06,0.01  c-0.02,0-0.04-0.01-0.06-0.01h-1.48c-0.4,0-0.72,0.32-0.72,0.72c0,0.4,0.32,0.72,0.72,0.72h1.48c0.02,0,0.04-0.01,0.06-0.01  c0.02,0,0.04,0.01,0.06,0.01c0.64,0,1.16,0.52,1.16,1.16s-0.52,1.16-1.16,1.16c-0.05,0-0.1,0.02-0.15,0.03  c-0.05-0.01-0.1-0.01-0.14-0.01c-0.03,0-0.05-0.02-0.08-0.02h-1.48c-0.4,0-0.72,0.32-0.72,0.72c0,0.4,0.32,0.72,0.72,0.72h1.4  c0.64,0,1.16,0.52,1.16,1.16c0,0.64-0.52,1.16-1.16,1.16c-0.03,0-0.06,0.01-0.08,0.02c-0.03,0-0.05-0.02-0.08-0.02h-1.48  c-0.4,0-0.72,0.32-0.72,0.72c0,0.4,0.32,0.72,0.72,0.72h1.18c0.01,0,0.01,0,0.02,0c0.64,0,1.16,0.52,1.16,1.15  c0,0.31-0.12,0.6-0.34,0.82c-0.22,0.22-0.51,0.34-0.82,0.34l-0.08,0c-4.56,0.52-12.38-0.71-15.46-1.25V62.95  C43.67,62.69,45.17,61.48,46.58,59.28z"/></svg>
